<svg version="1.1" viewBox="0.0 0.0 402.48293963254594 401.96062992125985" fill="none" stroke="none" stroke-linecap="square" stroke-miterlimit="10" xmlns:xlink="http://www.w3.org/1999/xlink" xmlns="http://www.w3.org/2000/svg"><clipPath id="p.0"><path d="m0 0l402.48294 0l0 401.96063l-402.48294 0l0 -401.96063z" clip-rule="nonzero"/></clipPath><g clip-path="url(#p.0)"><path fill="#000000" fill-opacity="0.0" d="m0 0l402.48294 0l0 401.96063l-402.48294 0z" fill-rule="evenodd"/><path fill="#45818e" d="m88.78346 246.13124l112.456696 -194.51968l112.45668 194.51968z" fill-rule="evenodd"/><path fill="#45818e" d="m153.79527 93.63574l-49.08661 84.91339l-49.086617 -84.91339z" fill-rule="evenodd"/><path fill="#45818e" d="m346.85828 93.63574l-49.08661 84.91339l-49.086624 -84.91339z" fill-rule="evenodd"/><path fill="#45818e" d="m250.32545 265.43365l-49.08661 84.91336l-49.08661 -84.91336z" fill-rule="evenodd"/><path fill="#f1c232" d="m152.15486 210.49402l49.08661 -84.91339l49.08661 84.91339z" fill-rule="evenodd"/><path fill="#f1c232" d="m79.02362 93.635605l-11.700783 20.251968l-11.70079 -20.251968z" fill-rule="evenodd"/><path fill="#f1c232" d="m346.8609 93.635605l-11.700806 20.251968l-11.700775 -20.251968z" fill-rule="evenodd"/><path fill="#f1c232" d="m212.93964 330.0949l-11.70079 20.251984l-11.70079 -20.251984z" fill-rule="evenodd"/></g></svg>